<?xml version="1.0" standalone="no"?>
<!DOCTYPE svg PUBLIC "-//W3C//DTD SVG 20010904//EN"
 "http://www.w3.org/TR/2001/REC-SVG-20010904/DTD/svg10.dtd">
<svg version="1.0" xmlns="http://www.w3.org/2000/svg"
 width="900.000000pt" height="593.000000pt" viewBox="0 0 900.000000 593.000000"
 preserveAspectRatio="xMidYMid meet">

<g transform="translate(0.000000,593.000000) scale(0.100000,-0.100000)"
fill="#000000" stroke="none">
<path d="M4147 5911 c-72 -24 -121 -61 -155 -117 -15 -24 -34 -44 -44 -44 -37
0 -180 -59 -254 -105 -95 -59 -203 -165 -266 -260 -66 -100 -152 -277 -187
-381 -51 -153 -91 -483 -91 -754 0 -133 32 -475 60 -645 13 -76 13 -233 0
-309 -6 -37 -18 -68 -31 -83 -37 -38 -13 -38 34 1 24 20 58 62 75 94 37 67 38
62 12 -38 -11 -41 -20 -89 -20 -107 0 -28 -7 -36 -57 -66 -132 -80 -272 -88
-404 -25 -94 44 -164 108 -254 229 -144 194 -159 228 -140 331 6 30 3 40 -16
59 -13 13 -23 29 -21 35 4 19 -38 54 -65 54 -15 0 -39 -11 -54 -26 l-27 -26
-7 42 c-5 31 -11 40 -22 36 -8 -3 -17 -6 -19 -6 -2 0 -4 -11 -4 -25 0 -37 -18
-30 -22 8 -2 20 -8 32 -18 32 -12 0 -16 -15 -18 -66 l-3 -67 55 -62 c29 -34
60 -74 67 -89 168 -332 320 -520 490 -605 48 -24 114 -50 146 -56 82 -17 203
-8 291 23 l74 26 -7 -77 c-22 -264 -39 -398 -72 -565 l-37 -187 -134 -71
c-239 -126 -332 -206 -351 -302 -20 -98 11 -166 92 -202 49 -23 171 -57 247
-69 l35 -6 1 -193 c0 -140 5 -212 17 -267 16 -70 95 -250 131 -295 14 -19 15
-16 17 45 2 121 11 125 47 24 18 -49 32 -108 32 -132 0 -48 8 -52 37 -19 34
36 53 83 59 145 l6 58 42 -39 c22 -21 97 -84 166 -139 172 -138 217 -191 234
-277 6 -35 62 -131 76 -131 4 0 5 43 2 95 -3 54 -1 95 4 95 27 0 113 -191 115
-254 0 -17 4 -40 9 -51 9 -23 15 -13 25 50 4 22 18 76 33 120 l26 80 7 -45
c16 -95 59 -173 57 -102 -1 16 11 51 26 78 56 102 92 140 188 199 51 32 113
73 137 93 72 59 184 223 295 435 25 48 49 87 53 87 15 -1 30 -65 25 -100 -5
-32 -4 -34 12 -21 29 24 114 158 135 215 39 104 54 211 48 337 l-5 116 159 6
c293 13 516 57 611 122 44 30 76 86 84 148 11 80 -54 162 -197 249 -65 39
-262 107 -521 179 l-158 43 0 167 c0 149 10 317 25 405 l6 32 64 -44 c40 -26
104 -56 163 -75 134 -44 220 -44 357 2 221 73 358 216 483 504 24 55 50 114
58 130 27 59 92 139 127 156 38 20 77 74 77 108 0 28 -28 27 -39 -2 -5 -13
-17 -29 -26 -37 -16 -13 -17 -13 -12 5 14 48 17 71 8 84 -13 20 -28 6 -57 -52
-40 -79 -45 -83 -60 -47 -28 66 -136 65 -139 -1 -1 -13 -10 -37 -20 -52 -16
-24 -17 -34 -7 -61 18 -48 15 -64 -19 -136 -77 -162 -220 -332 -340 -403 -132
-77 -234 -85 -373 -27 -68 29 -206 115 -221 139 -3 6 6 139 20 296 14 157 25
292 25 300 0 10 19 2 62 -25 34 -21 64 -37 66 -35 2 2 -10 34 -27 72 -63 141
-65 158 -66 598 0 396 0 402 -29 555 -34 187 -84 357 -136 465 -101 211 -314
407 -518 478 -115 40 -275 48 -365 18z m-7 -745 c30 -45 62 -71 253 -206 182
-129 202 -165 178 -321 -16 -102 -56 -182 -136 -270 -37 -41 -76 -93 -87 -116
-17 -38 -18 -50 -8 -105 6 -34 18 -79 27 -100 8 -21 12 -46 8 -55 -3 -10 -13
-58 -21 -107 -28 -168 -66 -215 -170 -208 -31 3 -91 68 -108 120 -9 24 -19 79
-22 121 -6 69 -4 78 15 95 68 61 40 215 -50 271 -110 70 -156 138 -189 279
-29 119 -23 144 77 325 101 183 143 300 144 397 l0 69 30 -74 c16 -40 43 -92
59 -115z m461 -1378 c148 -195 321 -407 425 -522 111 -122 202 -188 326 -236
141 -55 246 -41 387 50 117 75 239 224 318 388 42 86 45 97 35 126 -15 41 -15
69 0 84 19 19 30 14 17 -9 -9 -17 -7 -25 10 -43 16 -17 18 -25 9 -34 -22 -22
3 -12 48 19 49 34 113 113 140 174 13 30 18 35 21 22 7 -29 -37 -136 -86 -207
-24 -36 -68 -120 -96 -186 -139 -326 -283 -468 -539 -534 -112 -28 -169 -26
-290 14 -117 38 -212 95 -311 188 -35 32 -161 171 -281 309 -208 238 -220 253
-231 307 -18 85 -17 212 2 212 1 0 44 -55 96 -122z m-662 7 c13 -88 14 -132 4
-137 -5 -1 -20 -22 -35 -44 -68 -104 -283 -361 -402 -480 -114 -113 -143 -136
-221 -176 -119 -61 -188 -80 -290 -80 -168 0 -290 58 -426 200 -100 104 -161
193 -258 372 -34 63 -72 130 -83 149 -16 24 -23 56 -26 112 -6 98 10 104 27
12 15 -77 21 -87 73 -119 42 -27 51 -29 46 -12 -3 7 7 22 21 35 14 12 20 23
14 23 -7 0 -13 11 -13 25 0 23 2 24 20 15 28 -15 36 -55 15 -86 -15 -23 -15
-29 -1 -69 28 -83 190 -311 274 -387 131 -118 293 -160 444 -115 132 40 352
231 528 457 76 98 250 357 250 372 0 4 6 8 14 8 9 0 17 -23 25 -75z m-1779
-32 c5 -21 17 -60 25 -88 l16 -50 -27 26 c-20 21 -27 39 -31 88 -6 69 1 80 17
24z m4233 -20 c-11 -21 -35 -47 -53 -57 -32 -19 -32 -19 -22 1 6 11 23 28 37
37 14 9 30 29 36 43 5 14 12 23 15 20 4 -3 -2 -23 -13 -44z m-4041 10 c18 -16
25 -43 11 -43 -3 0 -14 7 -24 16 -17 15 -19 14 -38 -17 -12 -19 -21 -43 -21
-53 0 -20 0 -20 -15 0 -22 29 -18 53 14 85 34 33 47 36 73 12z m3857 -6 c19
-24 24 -72 8 -85 -12 -10 -14 -8 -10 12 3 16 -2 31 -17 46 -21 21 -32 22 -74
5 -16 -7 -17 -6 -7 13 9 17 21 22 50 22 21 0 44 -6 50 -13z m-3856 -74 c8 -44
3 -53 -29 -53 -33 0 -40 24 -21 66 20 42 42 36 50 -13z m3837 28 c12 -24 -2
-69 -25 -77 -33 -13 -50 31 -36 94 1 1 12 2 26 2 14 0 29 -8 35 -19z m-822
-1596 c-2 -2 -69 -15 -149 -29 -80 -14 -153 -28 -162 -32 -15 -5 -17 2 -17 63
0 38 2 72 5 75 3 3 78 -13 166 -35 88 -22 158 -41 157 -42z m192 -70 c83 -34
114 -55 131 -87 12 -22 -18 -43 -79 -57 -40 -8 -44 -8 -52 14 -15 39 -69 92
-113 111 -41 18 -41 18 -14 22 16 2 35 -2 43 -9 17 -14 18 -5 4 22 -6 10 -9
19 -6 19 2 0 41 -16 86 -35z m-196 -150 c21 -9 36 -18 34 -20 -4 -5 -188 -23
-273 -27 -54 -3 -60 -1 -63 18 -3 18 6 22 85 36 99 19 160 17 217 -7z m-2308
-147 l-11 -73 -38 2 c-64 4 -93 33 -69 69 9 15 104 74 118 74 8 0 8 -20 0 -72z"/>
<path d="M3969 4710 c27 -23 47 -25 81 -5 27 16 10 21 -19 6 -12 -7 -26 -5
-45 5 -39 19 -46 17 -17 -6z"/>
<path d="M4453 4713 c-18 -12 -29 -13 -53 -5 -17 6 -30 7 -30 2 0 -5 15 -12
34 -15 34 -7 76 7 76 25 0 12 0 12 -27 -7z"/>
<path d="M4120 4560 c0 -11 5 -20 11 -20 6 0 9 6 6 14 -5 12 -1 13 24 4 17 -6
43 -8 58 -5 15 3 33 1 39 -5 8 -8 13 -7 18 6 9 25 0 29 -41 17 -23 -6 -46 -6
-62 0 -37 14 -53 11 -53 -11z"/>
<path d="M4290 4180 c0 -5 7 -10 16 -10 8 0 12 5 9 10 -3 6 -10 10 -16 10 -5
0 -9 -4 -9 -10z"/>
<path d="M4305 4080 c3 -5 10 -10 16 -10 5 0 9 5 9 10 0 6 -7 10 -16 10 -8 0
-12 -4 -9 -10z"/>
</g>
</svg>
